<?xml version="1.0" encoding="utf-8"?>
<!-- Svg Vector Icons : http://www.onlinewebfonts.com/icon -->
<!DOCTYPE svg PUBLIC "-//W3C//DTD SVG 1.1//EN" "http://www.w3.org/Graphics/SVG/1.1/DTD/svg11.dtd">
<svg version="1.1" xmlns="http://www.w3.org/2000/svg" xmlns:xlink="http://www.w3.org/1999/xlink" x="0px" y="0px" viewBox="0 0 1000 1000" enable-background="new 0 0 1000 1000" xml:space="preserve">
<metadata> Svg Vector Icons : http://www.onlinewebfonts.com/icon </metadata>
<g><path d="M206,108L206,108v784c0,0,0,0-0.1,0h588.2c-0.1,0-0.1,0-0.1,0V108c0,0,0,0,0.1,0H206C206,108,206,108,206,108L206,108z M108,108c0-54.1,43.8-98,97.9-98h588.2c54.1,0,97.9,43.9,97.9,98v784c0,54.1-43.8,98-97.9,98H205.9c-54.1,0-97.9-43.9-97.9-98V108L108,108z"/><path d="M304,255c0-27.1,21.9-49,49.1-49H647c27.1,0,49.1,22,49.1,49c0,27.1-21.9,49-49.1,49H353.1C326,304,304,282,304,255z M304,451c0-27.1,21.9-49,49.1-49H647c27.1,0,49.1,22,49.1,49c0,27.1-21.9,49-49.1,49H353.1C326,500,304,478,304,451z M304,647c0-27.1,22-49,49-49h147c27.1,0,49,22,49,49c0,27.1-22,49-49,49H353C325.9,696,304,674,304,647z"/></g>
</svg>