
<?xml version="1.0" encoding="iso-8859-1"?>
<!-- Generator: Adobe Illustrator 19.0.0, SVG Export Plug-In . SVG Version: 6.00 Build 0)  -->
<svg version="1.1" id="Layer_1" xmlns="http://www.w3.org/2000/svg" xmlns:xlink="http://www.w3.org/1999/xlink" x="0px" y="0px"
	 viewBox="0 0 512.001 512.001" style="enable-background:new 0 0 512.001 512.001;" xml:space="preserve">
<g>
	<g>
		<path d="M413.495,265.174c-25.714-112.697-43.031-190.996-44.117-199.477c-1.58-12.333,0.997-25.04,7.256-35.783
			c3.585-6.155,3.608-13.755,0.06-19.93C373.145,3.807,366.566,0,359.443,0H152.551c-7.124,0-13.706,3.81-17.253,9.988
			c-3.548,6.177-3.523,13.782,0.068,19.935c6.261,10.731,8.845,23.438,7.275,35.78c-1.082,8.52-18.405,86.809-44.131,199.453
			c-6.27,27.45,0.007,55.998,17.22,78.317c16.875,21.883,42.26,34.943,69.659,35.833c1.061,0.033,2.126,0.052,3.195,0.052h47.518
			v92.85h-50.404c-10.988,0-19.896,8.908-19.896,19.896s8.908,19.896,19.896,19.896h140.601c10.988,0,19.896-8.908,19.896-19.896
			s-8.908-19.896-19.896-19.896h-50.404v-92.85h47.518c1.07,0,2.138-0.019,3.213-0.052c27.387-0.893,52.772-13.954,69.645-35.832
			C413.48,321.159,419.758,292.619,413.495,265.174z M330.982,39.793c-1.976,10.011-2.376,20.33-1.121,30.508H182.163
			c1.247-10.18,0.842-20.5-1.137-30.508H330.982z M364.76,319.172c-9.59,12.435-23.962,19.858-39.419,20.362
			c-0.641,0.021-1.284,0.031-1.93,0.031H188.582c-0.643,0-1.283-0.011-1.911-0.031c-15.467-0.503-29.841-7.924-39.431-20.361
			c-9.93-12.876-13.551-29.335-9.938-45.158c10.974-48.043,27.174-119.417,36.822-163.922h163.778
			c9.643,44.494,25.833,115.878,36.798,163.933C378.309,289.846,374.687,306.301,364.76,319.172z"/>
	</g>
</g>
<g>
</g>
<g>
</g>
<g>
</g>
<g>
</g>
<g>
</g>
<g>
</g>
<g>
</g>
<g>
</g>
<g>
</g>
<g>
</g>
<g>
</g>
<g>
</g>
<g>
</g>
<g>
</g>
<g>
</g>
</svg>
