<?xml version="1.0" encoding="iso-8859-1"?>
<!-- Generator: Adobe Illustrator 19.0.0, SVG Export Plug-In . SVG Version: 6.00 Build 0)  -->
<svg version="1.1" id="Layer_1" xmlns="http://www.w3.org/2000/svg" xmlns:xlink="http://www.w3.org/1999/xlink" x="0px" y="0px"
	 viewBox="0 0 512 512" style="enable-background:new 0 0 512 512;" xml:space="preserve">
<g>
	<g>
		<path d="M359.859,5.883C356.462,2.202,351.68,0,346.671,0H165.328c-5.009,0-9.79,2.202-13.186,5.883
			c-3.396,3.681-5.101,8.669-4.699,13.661l30.532,379.875c2.393,29.769-3.303,59.686-16.471,86.491
			c-2.732,5.561-2.402,12.256,0.874,17.516s9.033,8.574,15.23,8.574h156.786c6.197,0,11.954-3.306,15.231-8.566
			c3.277-5.26,3.607-11.892,0.874-17.455c-13.168-26.805-18.865-56.736-16.471-86.505L359.869,77.94
			c0.12-0.829,0.201-1.67,0.203-2.532l4.486-55.808C364.959,14.608,363.255,9.564,359.859,5.883z M307.738,476.112H204.261
			c8.382-25.121,11.647-52.543,9.485-79.432L189.369,93.308H322.63L298.254,396.68C296.092,423.569,299.356,450.991,307.738,476.112
			z M325.515,57.421H186.485l-1.713-21.533h142.457L325.515,57.421z"/>
	</g>
</g>
<g>
</g>
<g>
</g>
<g>
</g>
<g>
</g>
<g>
</g>
<g>
</g>
<g>
</g>
<g>
</g>
<g>
</g>
<g>
</g>
<g>
</g>
<g>
</g>
<g>
</g>
<g>
</g>
<g>
</g>
</svg>
